/* XPM */
static char *a3577efa285e4d3eb7a8fffa9716574fQl8bnMSjPlELKZfI[] = {
/* columns rows colors chars-per-pixel */
"31 45 163 2 ",
"   c #240800",
".  c #290900",
"X  c #310B00",
"o  c #3E0E00",
"O  c #3A3A3A",
"+  c #531400",
"@  c #5D1600",
"#  c #631700",
"$  c #651901",
"%  c #6C1900",
"&  c #761B00",
"*  c #7C1D00",
"=  c #60210E",
"-  c #6C220B",
";  c #722209",
":  c #6F2710",
">  c #6F2A12",
",  c #6F2E19",
"<  c #6F311D",
"1  c #46312B",
"2  c #4A322B",
"3  c #53342B",
"4  c #58362B",
"5  c #6A3A2B",
"6  c #6F4233",
"7  c #69463A",
"8  c #656565",
"9  c #821E00",
"0  c #881F00",
"q  c #822003",
"w  c #8C2000",
"e  c #872709",
"r  c #882609",
"t  c #86290E",
"y  c #932200",
"u  c #9B2400",
"i  c #952C0B",
"p  c #822D12",
"a  c #8B2D10",
"s  c #932F11",
"d  c #873115",
"f  c #8B3216",
"g  c #8B341A",
"h  c #943213",
"j  c #933618",
"k  c #93381A",
"l  c #9E3A1B",
"z  c #A12500",
"x  c #AC2700",
"c  c #A22A06",
"v  c #AB2A03",
"b  c #B42A00",
"n  c #BA2B01",
"m  c #B53109",
"M  c #BD3309",
"N  c #B03F1A",
"B  c #8B3B23",
"V  c #8B3F29",
"C  c #C52D00",
"Z  c #C92E00",
"A  c #C43409",
"S  c #D23202",
"D  c #D43506",
"F  c #D93909",
"G  c #C43910",
"H  c #B7431D",
"J  c #8B432D",
"K  c #934125",
"L  c #9E4227",
"P  c #824734",
"I  c #824935",
"U  c #8B4936",
"Y  c #8B4A37",
"T  c #844B3A",
"R  c #99523C",
"E  c #A84627",
"W  c #B74722",
"Q  c #B54E2C",
"!  c #A84D34",
"~  c #B85433",
"^  c #C5451D",
"/  c #CF451A",
"(  c #E54919",
")  c #EA4C1A",
"_  c #C54B25",
"`  c #DB5327",
"'  c #DB562C",
"]  c #CF5630",
"[  c #C45836",
"{  c #D95931",
"}  c #DB5F38",
"|  c #EB5C30",
" . c #CF613D",
".. c #F66133",
"X. c #FF6837",
"o. c #F76538",
"O. c #FF6C3C",
"+. c #8B5140",
"@. c #A85C44",
"#. c #BB5D42",
"$. c #82655B",
"%. c #97695B",
"&. c #99695B",
"*. c #A8604A",
"=. c #886E65",
"-. c #936F63",
";. c #9E6E60",
":. c #9D7265",
">. c #C46245",
",. c #CF6B4C",
"<. c #D96843",
"1. c #D86B4B",
"2. c #CF7258",
"3. c #D87150",
"4. c #E26F49",
"5. c #F36D41",
"6. c #E2714D",
"7. c #FF7143",
"8. c #FF764B",
"9. c #E27E5E",
"0. c #F47B54",
"q. c #FC7A54",
"w. c #E27C60",
"e. c #FF8157",
"r. c #FF815B",
"t. c #D88469",
"y. c #D8907A",
"u. c #FF8963",
"i. c #F58868",
"p. c #FF8A68",
"a. c #FF9274",
"s. c #F39B7F",
"d. c #8C8381",
"f. c #968681",
"g. c #A18981",
"h. c #A98E85",
"j. c #B79287",
"k. c #A99791",
"l. c #B49A91",
"z. c #B5A49E",
"x. c #BCA59E",
"c. c gray68",
"v. c #BBBBBB",
"b. c #D89883",
"n. c #D89F8C",
"m. c #C9A79C",
"M. c #C5A89F",
"N. c #D8A595",
"B. c #D8AB9D",
"V. c #E2AF9F",
"C. c #C6B2AD",
"Z. c #D8B0A4",
"A. c #DBB6AB",
"S. c #C7BEBB",
"D. c #CEBFBB",
"F. c #FFBDA7",
"G. c #FFBFAA",
"H. c #E2BDB1",
"J. c #D8C3BD",
"K. c #DAD9D8",
"L. c #E2CAC3",
"P. c #F5D2C7",
"I. c #489848",
/* pixels */
"I.I.I.I.I.I.I.I.I.I.I.I.S.=.7 7 =.S.I.I.I.I.I.I.I.I.I.I.I.I.I.",
"I.I.I.I.I.I.I.I.I.I.K.S.h.I , 6 $.k.S.K.I.I.I.I.I.I.I.I.I.I.I.",
"I.I.I.I.I.I.I.I.I.I.S.=.I Q ,.m.z.$.=.S.I.I.I.I.I.I.I.I.I.I.I.",
"I.I.I.I.I.I.I.I.K.S.h.I j ' r.F.A.-.$.k.S.K.I.I.I.I.I.I.I.I.I.",
"I.I.I.I.I.I.I.I.S.=.I Q ' ..7.r.s.A.z.$.=.S.I.I.I.I.I.I.I.I.I.",
"I.I.I.I.I.I.K.S.h.I j ' X.X.X.O.u.G.A.-.$.k.S.K.I.I.I.I.I.I.I.",
"I.I.I.I.I.I.S.=.I Q ' ..X.X.O.8.e.u.s.A.z.$.=.S.I.I.I.I.I.I.I.",
"I.I.I.I.K.S.h.P j ' X.X...' ]  .<.5.u.G.A.-.$.l.D.K.I.I.I.I.I.",
"I.I.I.I.S.=.P Q ` ..X.X.' j : > K <.e.u.s.A.x.%.:.D.I.I.I.I.I.",
"I.I.K.v.f.5 ; N ` ....' W d - $ p ~ <.5.i.V.M.;.&.l.D.K.I.I.I.",
"I.I.v.8 2 - * ; j ` ` j d W ^ m c p K <.6.@.;.M.M.&.:.D.I.I.I.",
"I.I.c.O   % 9 # ; N H a k } o.) A q p ~ [ l *.L.J.+.T C.I.I.I.",
"I.I.c.O   % w 9 * ; a H { 0.q...( M c s l _ 9.P.J.+.T C.I.I.I.",
"I.I.c.O   % w 9 & % e / ..q.r.8...( A y i ^ 9.P.J.Y T C.I.I.I.",
"I.I.c.O   % 9 # % y n D ( ..8.r.q...( A v i @.H.A.Y T C.I.I.I.",
"I.I.c.O   % * + $ m F S F ) ..q.r.8...( M q Y Z.Z.Y T C.I.I.I.",
"I.I.c.O   % * + - ^ ) F S F ( ..8.r.q.../ r Y B.B.Y T C.I.I.I.",
"I.I.c.O   % * + : ] ..( F S F ) ..q.r.8.{ a Y N.N.Y T C.I.I.I.",
"I.I.c.O   % * + , ,.q...) F S F ( ..8.r.1.g J n.n.J T C.I.I.I.",
"I.I.c.O   % * + < 2.p.8...( F S F ) ..q.1.g J b.b.J T C.I.I.I.",
"I.I.c.O   % * + < 2.a.p.q...) F S F ( ..{ a V y.y.V T C.I.I.I.",
"I.I.c.O   % * + < 2.a.a.p.8...( F S F ) / r B t.t.B T C.I.I.I.",
"I.I.c.O   % * + < 2.a.a.a.p.q...) F S F M q g 3.3.g T C.I.I.I.",
"I.I.c.O   % * + , ,.p.a.a.a.p.8...( F S b * f <.<.f T C.I.I.I.",
"I.I.c.O   % * + : ] 8.p.a.a.a.p.q...) F b * f <.<.f T C.I.I.I.",
"I.I.c.O   % * + - ^ ..q.p.a.a.a.p.8...( M q f <.<.f T C.I.I.I.",
"I.I.c.O   % * + $ m ( ..8.p.a.a.a.p.q.../ r f <.<.f T C.I.I.I.",
"I.I.c.O   % * + # x F ) ..q.p.a.a.a.p.8.{ a f <.<.f T C.I.I.I.",
"I.I.c.O   % * + # x S F ( ..8.p.a.a.a.p.1.g f <.<.f T C.I.I.I.",
"I.I.c.O   % 9 # % y b Z F ) ..q.p.a.i.w.>.L E 4.<.f T C.I.I.I.",
"I.I.c.O   % w 9 & % * b S F ( ..8.p.w.! L [ 4.0.<.f T C.I.I.I.",
"I.I.c.O   % w 9 & @ % y b Z F ) | 1.#.h h [ 4.0.<.f T C.I.I.I.",
"I.I.c.O   % 9 # @ & & % 9 n D F G g , c v h E 4.<.f T C.I.I.I.",
"I.I.v.8 1 = $ @ # 9 9 # % u b b u & * b n y h [ >.R :.D.I.I.I.",
"I.I.K.v.d.1 o $ 9 w w 9 & % $ $ & u b Z Z n v h R j.D.K.I.I.I.",
"I.I.I.I.v.8 1 = & 0 y y 9 # + @ * b S S Z x i J :.D.I.I.I.I.I.",
"I.I.I.I.K.v.d.1 o & y y w 9 w z b Z S S x @ 4 g.D.K.I.I.I.I.I.",
"I.I.I.I.I.I.v.8 1 = & 0 y y z C S S Z x t 3 8 v.I.I.I.I.I.I.I.",
"I.I.I.I.I.I.K.v.d.1 o & y y z Z S S x @ 3 d.v.K.I.I.I.I.I.I.I.",
"I.I.I.I.I.I.I.I.v.8 1 = & 0 z Z Z x t 3 8 v.I.I.I.I.I.I.I.I.I.",
"I.I.I.I.I.I.I.I.K.v.d.1 o & z Z x @ 3 d.v.K.I.I.I.I.I.I.I.I.I.",
"I.I.I.I.I.I.I.I.I.I.v.8 1 = * y t 3 8 v.I.I.I.I.I.I.I.I.I.I.I.",
"I.I.I.I.I.I.I.I.I.I.K.v.d.1 . X 3 d.v.K.I.I.I.I.I.I.I.I.I.I.I.",
"I.I.I.I.I.I.I.I.I.I.I.I.v.8 O O 8 v.I.I.I.I.I.I.I.I.I.I.I.I.I.",
"I.I.I.I.I.I.I.I.I.I.I.I.K.v.c.c.v.K.I.I.I.I.I.I.I.I.I.I.I.I.I."
};
